<?xml version="1.0" encoding="UTF-8" standalone="no"?><!DOCTYPE svg PUBLIC "-//W3C//DTD SVG 1.1//EN" "http://www.w3.org/Graphics/SVG/1.1/DTD/svg11.dtd"><svg width="100%" height="100%" viewBox="0 0 284 284" version="1.1" xmlns="http://www.w3.org/2000/svg" xmlns:xlink="http://www.w3.org/1999/xlink" xml:space="preserve" xmlns:serif="http://www.serif.com/" style="fill-rule:evenodd;clip-rule:evenodd;stroke-linejoin:round;stroke-miterlimit:2;"><path d="M0,127.559l0,-98.802c0,-15.872 12.886,-28.757 28.757,-28.757l98.802,0l0,6.571c-0,3.131 -2.538,5.669 -5.669,5.669l-83.376,0c-14.501,0 -26.274,11.773 -26.274,26.274l0,83.267c0,1.532 -0.609,3.002 -1.692,4.086c-1.084,1.084 -2.553,1.692 -4.086,1.692c-3.17,-0 -6.462,-0 -6.462,-0Zm276.894,0c-3.131,-0 -5.669,-2.538 -5.669,-5.669l-0,-83.376c0,-14.501 -11.773,-26.274 -26.274,-26.274l-83.376,-0c-3.131,-0 -5.669,-2.538 -5.669,-5.669l0,-6.571l98.802,0c15.872,0 28.757,12.886 28.757,28.757l0,98.802l-6.571,0Zm6.571,28.346l0,98.802c0,15.872 -12.886,28.757 -28.757,28.757l-98.802,0l0,-6.571c0,-3.131 2.538,-5.669 5.669,-5.669l83.376,-0c14.501,0 26.274,-11.773 26.274,-26.274l0,-83.376c0,-3.131 2.538,-5.669 5.669,-5.669l6.571,0Zm-276.985,0c1.528,0 2.993,0.607 4.073,1.687c1.08,1.08 1.687,2.545 1.687,4.073l0,83.285c0,14.501 11.773,26.274 26.274,26.274l83.376,0c3.131,0 5.669,2.538 5.669,5.669l-0,6.571l-98.802,0c-15.872,0 -28.757,-12.886 -28.757,-28.757l0,-98.802l6.48,0Z" style="fill:#32344f;"/><path d="M133.228,158.74c0,-2.255 -0.896,-4.418 -2.491,-6.013c-1.595,-1.595 -3.758,-2.491 -6.013,-2.491l-62.362,0c-3.131,-0 -5.669,-2.538 -5.669,-5.669l0,-5.669c-0,-3.131 2.538,-5.669 5.669,-5.669l62.362,-0c2.255,0 4.418,-0.896 6.013,-2.491c1.595,-1.595 2.491,-3.758 2.491,-6.013l0,-62.362c0,-3.131 2.538,-5.669 5.669,-5.669l5.669,0c3.131,-0 5.669,2.538 5.669,5.669l0,62.362c-0,2.255 0.896,4.418 2.491,6.013c1.595,1.595 3.758,2.491 6.013,2.491l62.362,0c3.131,0 5.669,2.538 5.669,5.669l-0,5.669c0,3.131 -2.538,5.669 -5.669,5.669l-62.362,0c-2.255,-0 -4.418,0.896 -6.013,2.491c-1.595,1.595 -2.491,3.758 -2.491,6.013l0,62.362c-0,3.131 -2.538,5.669 -5.669,5.669l-5.669,-0c-3.131,0 -5.669,-2.538 -5.669,-5.669l-0,-62.362Z" style="fill:#32344f;"/></svg>